<svg xmlns="http://www.w3.org/2000/svg" width="100" height="100" viewBox="0 0 100 100">
  <g id="그룹_295" data-name="그룹 295" transform="translate(-1019 -695)">
    <g id="빼기_10" data-name="빼기 10" transform="translate(1041 730)" fill="#fff">
      <path d="M 26.00010108947754 47.00060272216797 C 22.6246509552002 47.00060272216797 19.35071182250977 46.33974075317383 16.26922035217285 45.03639221191406 C 13.29235076904297 43.77727127075195 10.61863136291504 41.97454071044922 8.322331428527832 39.67826080322266 C 6.026061058044434 37.38197326660156 4.223330974578857 34.708251953125 2.964210987091064 31.73138046264648 C 1.660861134529114 28.6498908996582 1.000001072883606 25.37595176696777 1.000001072883606 22.00050163269043 L 1.000001072883606 8.170201301574707 C 1.000001072883606 6.510591506958008 3.5850510597229 4.707491397857666 7.915020942687988 3.346891403198242 C 12.73128128051758 1.833471417427063 19.15402030944824 1.000001311302185 26.00010108947754 1.000001311302185 C 32.8461799621582 1.000001311302185 39.2689208984375 1.833471417427063 44.08518218994141 3.346891403198242 C 48.4151496887207 4.707491397857666 51.00020217895508 6.510591506958008 51.00020217895508 8.170201301574707 L 51.00020217895508 22.00050163269043 C 51.00020217895508 25.37595176696777 50.33934020996094 28.6498908996582 49.03599166870117 31.73138046264648 C 47.77687072753906 34.708251953125 45.97414016723633 37.38197326660156 43.67786026000977 39.67827224731445 C 41.38157272338867 41.97454071044922 38.70785140991211 43.77727127075195 35.73097991943359 45.03639221191406 C 32.64949035644531 46.33974075317383 29.37555122375488 47.00060272216797 26.00010108947754 47.00060272216797 Z M 26.49960136413574 2.999601364135742 C 20.6707706451416 2.999601364135742 15.17159080505371 3.691751480102539 11.015061378479 4.948561191558838 C 6.426031112670898 6.336141586303711 4.000401020050049 8.255901336669922 4.000401020050049 10.50030136108398 C 4.000401020050049 12.74447154998779 6.426041126251221 14.66401100158691 11.01510143280029 16.05141067504883 C 15.17162132263184 17.30804061889648 20.67079162597656 18.00010108947754 26.49960136413574 18.00010108947754 C 32.32865142822266 18.00010108947754 37.82804107666016 17.30804061889648 41.9847297668457 16.05141067504883 C 46.57395935058594 14.66402149200439 48.99970245361328 12.74448108673096 48.99970245361328 10.50030136108398 C 48.99970245361328 8.255901336669922 46.57398223876953 6.336141586303711 41.98477172851562 4.948561191558838 C 37.82807159423828 3.691751480102539 32.32866287231445 2.999601364135742 26.49960136413574 2.999601364135742 Z" stroke="none"/>
      <path d="M 26.00010108947754 46.00060272216797 C 29.24099159240723 46.00060272216797 32.38387298583984 45.3663215637207 35.3414192199707 44.11538314819336 C 38.19910049438477 42.90668106079102 40.7659797668457 41.17592239379883 42.97075271606445 38.97116088867188 C 45.17552185058594 36.76638031005859 46.90628051757812 34.19950103759766 48.11498260498047 31.34183120727539 C 49.36592102050781 28.3842716217041 50.00020217895508 25.24139213562012 50.00020217895508 22.00050163269043 L 50.00020217895508 8.170201301574707 C 50.00020217895508 7.507351398468018 48.70130157470703 5.845611572265625 43.785400390625 4.300901412963867 C 41.29793930053711 3.519264936447144 38.36757278442383 2.92257022857666 35.165283203125 2.532929182052612 C 37.77974700927734 2.869896173477173 40.18986511230469 3.361150741577148 42.2741813659668 3.991361379623413 C 44.45923233032227 4.652021408081055 46.20709991455078 5.443691253662109 47.46921920776367 6.344381332397461 C 49.56069183349609 7.836921215057373 49.99970245361328 9.428201675415039 49.99970245361328 10.50030136108398 C 49.99970245361328 11.57235145568848 49.56067276000977 13.16355133056641 47.46911239624023 14.65594100952148 C 46.20700073242188 15.5565013885498 44.45915222167969 16.34806060791016 42.27411270141602 17.00863075256348 C 38.02616119384766 18.29285049438477 32.42399215698242 19.00010108947754 26.49960136413574 19.00010108947754 C 20.57544136047363 19.00010108947754 14.97350120544434 18.29285049438477 10.72570133209229 17.00862121582031 C 8.540751457214355 16.34805107116699 6.792961120605469 15.55648136138916 5.530890941619873 14.65592098236084 C 3.4394211769104 13.1635217666626 3.000401020050049 11.572340965271 3.000401020050049 10.50030136108398 C 3.000401020050049 9.428211212158203 3.439401149749756 7.83695125579834 5.530781269073486 6.344411373138428 C 6.792860984802246 5.443711280822754 8.540660858154297 4.652031421661377 10.72563076019287 3.991361379623413 C 14.90032768249512 2.729068279266357 20.38345718383789 2.024121046066284 26.19447898864746 2.000227928161621 C 26.12990379333496 2.000077962875366 26.06475639343262 2.000001430511475 26.00010108947754 2.000001430511475 C 19.25295066833496 2.000001430511475 12.93668079376221 2.81714129447937 8.214791297912598 4.300901412963867 C 3.298901081085205 5.845611572265625 2.000001192092896 7.507351398468018 2.000001192092896 8.170201301574707 L 2.000001192092896 22.00050163269043 C 2.000001192092896 25.24139213562012 2.634281158447266 28.3842716217041 3.885221004486084 31.34182167053223 C 5.093921184539795 34.19950103759766 6.824681282043457 36.76638031005859 9.029440879821777 38.97115325927734 C 11.23422145843506 41.17592239379883 13.801100730896 42.90668106079102 16.65877151489258 44.11538314819336 C 19.61633110046387 45.3663215637207 22.75921058654785 46.00060272216797 26.00010108947754 46.00060272216797 M 26.00010108947754 48.00060272216797 C 22.4901008605957 48.00060272216797 19.0851001739502 47.31317138671875 15.87967109680176 45.95738983154297 C 12.78360080718994 44.64786148071289 10.00304126739502 42.77316284179688 7.615231037139893 40.38537216186523 C 5.227441310882568 37.99756240844727 3.352741003036499 35.21700286865234 2.043210983276367 32.12092971801758 C 0.6874310970306396 28.91550064086914 1.089477564164554e-06 25.51050186157227 1.089477564164554e-06 22.00050163269043 L 1.089477564164554e-06 8.170201301574707 C 1.089477564164554e-06 5.987741470336914 2.70448112487793 3.935981273651123 7.615241050720215 2.392881393432617 C 12.52588081359863 0.8498113751411438 19.05509185791016 1.361083945994324e-06 26.00010108947754 1.361083945994324e-06 C 32.94511032104492 1.361083945994324e-06 39.47431945800781 0.8498113751411438 44.38496017456055 2.392881393432617 C 49.29572296142578 3.935981273651123 52.00020217895508 5.987741470336914 52.00020217895508 8.170201301574707 L 52.00020217895508 22.00050163269043 C 52.00020217895508 25.51050186157227 51.31277084350586 28.91550064086914 49.95698928833008 32.12092971801758 C 48.6474609375 35.21700286865234 46.77276229858398 37.99756240844727 44.38497161865234 40.38537216186523 C 41.99716186523438 42.77316284179688 39.21660232543945 44.64786148071289 36.12053298950195 45.95738983154297 C 32.91510009765625 47.31317138671875 29.51010131835938 48.00060272216797 26.00010108947754 48.00060272216797 Z M 26.49960136413574 3.999601364135742 C 14.64490127563477 3.999601364135742 5.000401020050049 6.915801525115967 5.000401020050049 10.50030136108398 C 5.000401020050049 14.08430099487305 14.64490127563477 17.00010108947754 26.49960136413574 17.00010108947754 C 38.35480117797852 17.00010108947754 47.99970245361328 14.08430099487305 47.99970245361328 10.50030136108398 C 47.99970245361328 6.915801525115967 38.35480117797852 3.999601364135742 26.49960136413574 3.999601364135742 Z" stroke="none" fill="#fff"/>
    </g>
    <g id="빼기_9" data-name="빼기 9" transform="translate(1087.883 736.363)" fill="none">
      <path d="M0,27.622v0a27.745,27.745,0,0,0,3.725-13.9V1.564A2.692,2.692,0,0,0,3.416.338a12.136,12.136,0,0,1,7.955.793,11.308,11.308,0,0,1,4.141,3.3,10.2,10.2,0,0,1,2.059,7.9,10.586,10.586,0,0,1-4.588,7.115L3.3,26.06A11.706,11.706,0,0,1,0,27.622Z" stroke="none"/>
      <path d="M 4.250532627105713 22.98570823669434 L 11.85540103912354 17.79026031494141 C 13.89932155609131 16.39427185058594 15.22772121429443 14.34311103820801 15.59588146209717 12.01465129852295 C 15.95182132720947 9.76344108581543 15.3601713180542 7.504411220550537 13.92991065979004 5.653701305389404 C 13.04505062103271 4.508720874786377 11.86692142486572 3.570801019668579 10.52287101745605 2.941341161727905 C 9.050189971923828 2.251626968383789 7.373437881469727 1.927784562110901 5.72511100769043 2.014058828353882 L 5.72511100769043 13.72231101989746 C 5.72511100769043 16.88241577148438 5.222656726837158 20.01097679138184 4.250532627105713 22.98570823669434 M -0.0006489123334176838 27.62225151062012 L 0.0006010876386426389 27.62008094787598 C 2.437201023101807 23.41568183898926 3.72511100769043 18.60991096496582 3.72511100769043 13.72231101989746 L 3.72511100769043 1.564211130142212 C 3.72511100769043 1.153511047363281 3.621011018753052 0.7407910823822021 3.415711164474487 0.337521106004715 C 4.343451023101807 0.1131910979747772 5.299031257629395 0.0001610955805517733 6.256551265716553 0.0001610955805517733 C 8.024101257324219 0.0001610955805517733 9.792691230773926 0.3909010887145996 11.37112140655518 1.130131125450134 C 13.00191116333008 1.893891096115112 14.43394088745117 3.035211086273193 15.51241111755371 4.430711269378662 C 17.28298187255859 6.721771240234375 18.01420021057129 9.526061058044434 17.57134056091309 12.32699108123779 C 17.11626052856445 15.20516109466553 15.48691082000732 17.73192024230957 12.98341083526611 19.44181060791016 L 3.296711206436157 26.05950164794922 C 2.288281202316284 26.74837112426758 1.179701089859009 27.27391052246094 0.001751087605953217 27.62154197692871 L -0.0006489123334176838 27.62225151062012 Z" stroke="none" fill="#fff"/>
    </g>
    <g id="타원_141" data-name="타원 141" transform="translate(1019 695)" fill="none" stroke="#fff" stroke-width="2">
      <circle cx="50" cy="50" r="50" stroke="none"/>
      <circle cx="50" cy="50" r="49" fill="none"/>
    </g>
    <path id="패스_140" data-name="패스 140" d="M11.046,0S22.092,8.705,22.092,19.444,11.046,38.888,11.046,38.888,0,30.183,0,19.444,11.046,0,11.046,0Z" transform="translate(1077.311 705.416) rotate(43)" fill="#fff"/>
    <line id="선_1" data-name="선 1" y1="26.608" x2="24.561" transform="translate(1060.208 713.877)" fill="none" stroke="#000" stroke-width="1"/>
  </g>
</svg>
