<svg xmlns="http://www.w3.org/2000/svg" width="100" height="100" viewBox="0 0 100 100">
  <g id="그룹_287" data-name="그룹 287" transform="translate(-194 -999)">
    <g id="그룹_235" data-name="그룹 235" transform="translate(193 997)">
      <g id="그룹_234" data-name="그룹 234" transform="translate(0 0)">
        <g id="그룹_233" data-name="그룹 233" transform="translate(0 0)">
          <circle id="타원_45" data-name="타원 45" cx="50" cy="50" r="50" transform="translate(1 2)" fill="none"/>
          <path id="빼기_8" data-name="빼기 8" d="M51,57H6a6.007,6.007,0,0,1-6-6V6A6.007,6.007,0,0,1,6,0H51a6.007,6.007,0,0,1,6,6V51A6.007,6.007,0,0,1,51,57ZM18.749,6.2A11.327,11.327,0,0,0,7.435,17.51V38.251A11.327,11.327,0,0,0,18.749,49.565H39.49A11.327,11.327,0,0,0,50.8,38.251V17.51A11.327,11.327,0,0,0,39.49,6.2Z" transform="translate(21.999 25)" fill="#fff"/>
          <path id="빼기_7" data-name="빼기 7" d="M15,30A15,15,0,0,1,4.393,4.394,15,15,0,1,1,25.606,25.606,14.9,14.9,0,0,1,15,30ZM15,6.251A8.749,8.749,0,1,0,23.75,15,8.759,8.759,0,0,0,15,6.251Z" transform="translate(36 39)" fill="#fff"/>
          <circle id="타원_48" data-name="타원 48" cx="2.5" cy="2.5" r="2.5" transform="translate(63 36)" fill="#fff"/>
        </g>
      </g>
    </g>
  </g>
</svg>
