<svg xmlns="http://www.w3.org/2000/svg" xmlns:xlink="http://www.w3.org/1999/xlink" width="500" height="500" viewBox="0 0 500 500">
  <defs>
    <style>
      .cls-1 {
        fill: none;
      }

      .cls-2 {
        clip-path: url(#clip-path);
      }
    </style>
    <clipPath id="clip-path">
      <rect id="사각형_3" data-name="사각형 3" class="cls-1" width="500" height="500" transform="translate(46 112)"/>
    </clipPath>
  </defs>
  <g id="마스크_그룹_3" data-name="마스크 그룹 3" class="cls-2" transform="translate(-46 -112)">
    <g id="그룹_39" data-name="그룹 39" transform="translate(-696.13 -159.995)">
      <g id="그룹_36" data-name="그룹 36" transform="translate(779.13 290.995)">
        <g id="그룹_3" data-name="그룹 3" transform="translate(255.486 161.357)">
          <path id="패스_3" data-name="패스 3" d="M28.978,17.332A10.028,10.028,0,0,0,36.586,7.6,9.726,9.726,0,0,0,32.638-.227a10.373,10.373,0,0,0-8.846-1.758A36.035,36.035,0,0,0-3.756,32.726a36.059,36.059,0,0,0,27.548,34.71,10.664,10.664,0,0,0,2.615.331,10.359,10.359,0,0,0,6.24-2.08,9.77,9.77,0,0,0,3.939-7.837,10.035,10.035,0,0,0-7.608-9.73,15.8,15.8,0,0,1,0-30.787" transform="translate(3.756 2.314)"/>
        </g>
        <g id="그룹_4" data-name="그룹 4">
          <path id="패스_4" data-name="패스 4" d="M245.973,6.158l-.383-.11h-.07A204.973,204.973,0,0,0,145.314,4.766a23.169,23.169,0,0,0-3.329.781l-2.179.56c-3.059.79-6.153,1.664-9.4,2.649C107.683,14.836,87.211,24.1,69.581,36.3,37.71,58.342,16.053,89.766,6.989,127.091a176.659,176.659,0,0,0-5.752,31.161A45.538,45.538,0,0,0,1.5,170.818a42.677,42.677,0,0,1,.549,6.962v.178a40.712,40.712,0,0,1-5.307,19.7l-22.459,39.609a47.545,47.545,0,0,0-6.153,22.195,38.392,38.392,0,0,0,21.753,35.321,27.179,27.179,0,0,0-1.211,5.358c-.845,6.979,1.063,14.4,5.525,21.541A30.241,30.241,0,0,0-.1,346.693V376.8A25.834,25.834,0,0,0,7.39,395.965a27.347,27.347,0,0,0,7.3,5.3c.139.127.288.246.436.382l.139.119c10.7,8.864,27.33,12.846,49.475,11.828a192.153,192.153,0,0,0,32.673-4.5,34.322,34.322,0,0,1,4.994-.62l12.428,45.009a11.7,11.7,0,0,0,7.791,8.007,12.322,12.322,0,0,0,3.7.569,12.035,12.035,0,0,0,7.425-2.547,11.429,11.429,0,0,0,4.044-12.04l-14.275-51.691a14.317,14.317,0,0,0-11.051-10.129A52.53,52.53,0,0,0,92.353,386l-.34.076c-18.258,4.3-49.571,7.217-61.058-2.318a11.5,11.5,0,0,1-1.734-1.741c-2.161-2.607-3.129-6.011-2.9-10.138,1.36-4.109,6.257-21.6-3.1-34.812a26.83,26.83,0,0,0-3.137-3.727l-.427-.416c-.575-.526-3.364-3.413-1.063-8.4l3.033-6.563-4.628-5.646c-2.911-3.532-4.549-7.141-4.27-9.391a3.933,3.933,0,0,1,1.482-2.564,11.682,11.682,0,0,0,4.087-8.839v-3.532A11.876,11.876,0,0,0,9.3,276.577a51.087,51.087,0,0,1-13.125-5.2,12.636,12.636,0,0,1-6.031-9.841,12.559,12.559,0,0,1,1.6-7.2l29.57-52.15c1.055-1.52,7.678-12.3,4.741-41.477a11.277,11.277,0,0,1,.087-2.624c.035-.263.052-.492.061-.594l1.4-12.4.087-.569c6.745-33.334,31.026-92.6,117.766-115.448h.619l2.571-.815a2.472,2.472,0,0,1,.427-.136l1.769-.374a248.085,248.085,0,0,1,45.336-4.381h1.377a173.754,173.754,0,0,1,23.6,1.6,170.8,170.8,0,0,1,36.629,10.1A178.372,178.372,0,0,1,336.47,96.991c19.966,27.849,31.217,59.978,32.516,92.871a160.461,160.461,0,0,1-.357,18.569l-.009.153C361.726,272.145,319.266,325.5,257.8,347.857a12.439,12.439,0,0,0-3.765,2.157,14.577,14.577,0,0,0-7.077,16.947l1.769,5.969,14.319,59.511a11.816,11.816,0,0,0,8.253,8.508,12.065,12.065,0,0,0,11.486-2.632,11.372,11.372,0,0,0,3.564-10.953l-13.195-60.522a197.04,197.04,0,0,0,33.928-17.822c53.423-35.109,85.669-93.559,86.253-156.373.017-1.4.017-2.827,0-4.228-1.116-85.951-61.7-160.9-147.363-182.261" transform="translate(31.882 0.822)"/>
        </g>
        <g id="그룹_5" data-name="그룹 5" transform="translate(87.944 73.48)">
          <path id="패스_5" data-name="패스 5" d="M239.5,108.105A50.678,50.678,0,0,0,224.4,71.9a50.846,50.846,0,0,0,.811-9.06c0-25.964-20.219-48.176-46.425-51.5a43.316,43.316,0,0,0-39.775-25.769,44.655,44.655,0,0,0-6.022.408A43.555,43.555,0,0,0,104.223,2.762,43.512,43.512,0,0,0,69.441-14.432,43.006,43.006,0,0,0,29.047,12.806,53.26,53.26,0,0,0,3.19,28.675,51.109,51.109,0,0,0-9.961,62.842c0,1.265.044,2.53.139,3.8a51.529,51.529,0,0,0-21.221,41.46,50.686,50.686,0,0,0,15.1,36.2,49.917,49.917,0,0,0-.819,9.06c0,25.956,20.219,48.176,46.416,51.5a43.674,43.674,0,0,0,74.566,8.576,43.858,43.858,0,0,0,43.41,16.345A42.917,42.917,0,0,0,179.4,203.4a53.68,53.68,0,0,0,21.491-11.547,51.761,51.761,0,0,0,4.366-4.322,51.118,51.118,0,0,0,13.16-34.166c0-1.265-.044-2.539-.139-3.8A51.545,51.545,0,0,0,239.5,108.105m-42.285,38.641a31.266,31.266,0,0,1,.706,6.623,32.155,32.155,0,0,1-16.48,27.7,42.618,42.618,0,0,0-33.649-33.589,10.43,10.43,0,0,0-8.567,2.029,9.826,9.826,0,0,0-3.739,7.811,10.028,10.028,0,0,0,8.131,9.7,22.431,22.431,0,0,1,18.249,21.583l-.645,4.339a22.465,22.465,0,0,1-24.21,17.652,22.7,22.7,0,0,1-20.637-22.483V28.072A22.514,22.514,0,0,1,134.717,5.929a23.215,23.215,0,0,1,4.236-.4c10.475,0,19.957,7.158,22.188,17.372.3,1.562.749,4.118.793,4.925-.035,10.3-7.722,19.282-18.275,21.371a10.047,10.047,0,0,0-8.175,9.841,9.814,9.814,0,0,0,3.756,7.71,10.13,10.13,0,0,0,8.34,2.021c18.336-3.609,32.159-18.561,34.285-36.391a32.076,32.076,0,0,1,22.86,30.456,31.224,31.224,0,0,1-1.473,9.51l-2.083,6.5,5.464,4.254a31.523,31.523,0,0,1,12.358,25,31.9,31.9,0,0,1-16.776,27.892l-6.562,3.592Zm-132.4,20.267a10.035,10.035,0,0,0,8.166-9.849,9.818,9.818,0,0,0-3.747-7.71,10.218,10.218,0,0,0-6.362-2.216,10.563,10.563,0,0,0-1.987.187c-18.336,3.609-32.158,18.569-34.285,36.408a32.094,32.094,0,0,1-22.86-30.465,30.873,30.873,0,0,1,1.482-9.5l2.074-6.512-5.473-4.262a31.57,31.57,0,0,1-12.367-25A31.9,31.9,0,0,1,6.231,80.213l6.554-3.592-1.543-7.166a31.454,31.454,0,0,1-.715-6.623A32.161,32.161,0,0,1,27,35.145,41.587,41.587,0,0,0,38.93,57.3,43.2,43.2,0,0,0,60.657,68.743,10.432,10.432,0,0,0,69.232,66.7a9.832,9.832,0,0,0,3.73-7.811,10.065,10.065,0,0,0-8.175-9.713,22.735,22.735,0,0,1-11.382-6c-4.715-4.619-7.216-10.291-6.824-15.563.078-1.1.662-4.356.654-4.356a22.7,22.7,0,0,1,44.848,4.823V188.087a22.655,22.655,0,0,1-19.356,22.347c-11.791,1.639-22.964-5.876-25.4-17.126-.279-1.452-.741-4.1-.81-4.942-.889-10.936,8.61-19.444,18.3-21.354" transform="translate(31.043 14.432)"/>
        </g>
        <g id="그룹_6" data-name="그룹 6" transform="translate(145.973 160.968)">
          <path id="패스_6" data-name="패스 6" d="M11.326.291A10.368,10.368,0,0,0,2.48,2.048,9.774,9.774,0,0,0-1.468,9.877V10.2A9.825,9.825,0,0,0,6.14,19.607a15.809,15.809,0,0,1,0,30.8,10.028,10.028,0,0,0-7.608,9.73A9.749,9.749,0,0,0,2.48,67.97a10.334,10.334,0,0,0,6.231,2.08,10.173,10.173,0,0,0,2.615-.331,36.041,36.041,0,0,0,27.557-34.71A36.058,36.058,0,0,0,11.326.291" transform="translate(1.468 0.039)"/>
        </g>
      </g>
    </g>
  </g>
</svg>
