<svg xmlns="http://www.w3.org/2000/svg" xmlns:xlink="http://www.w3.org/1999/xlink" width="500" height="500" viewBox="0 0 500 500">
  <defs>
    <style>
      .cls-1 {
        fill: none;
      }

      .cls-2 {
        clip-path: url(#clip-path);
      }

      .cls-3 {
        stroke: #000;
        stroke-width: 3px;
      }
    </style>
    <clipPath id="clip-path">
      <rect id="사각형_4" data-name="사각형 4" class="cls-1" width="500" height="500" transform="translate(745 224)"/>
    </clipPath>
  </defs>
  <g id="마스크_그룹_4" data-name="마스크 그룹 4" class="cls-2" transform="translate(-745 -224)">
    <g id="그룹_38" data-name="그룹 38" transform="translate(-382.652 -81.157)">
      <g id="그룹_37" data-name="그룹 37" transform="translate(1143.652 321.157)">
        <g id="그룹_16" data-name="그룹 16" transform="translate(0.027)">
          <path id="패스_16" data-name="패스 16" class="cls-3" d="M407.861,89.868h-7.8v-31.2a39.044,39.044,0,0,0-39-38.994h-15.6v-7.8a23.4,23.4,0,0,0-23.395-23.395H33.492A23.4,23.4,0,0,0,10.1,11.871v7.8H2.3a39.044,39.044,0,0,0-39,38.994v31.2h-7.8a7.8,7.8,0,0,0-7.8,7.8v46.8a7.8,7.8,0,0,0,7.8,7.8h7.8v31.19a39.051,39.051,0,0,0,39,39H150.483A7.813,7.813,0,0,0,156,220.171l13.312-13.312h24.741l13.312,13.312a7.813,7.813,0,0,0,5.517,2.288H361.062a39.051,39.051,0,0,0,39-39v-31.19h7.8a7.8,7.8,0,0,0,7.8-7.8v-46.8a7.793,7.793,0,0,0-7.8-7.8M25.7,11.871a7.8,7.8,0,0,1,7.8-7.8H322.068a7.793,7.793,0,0,1,7.8,7.8v7.8H25.7Zm-46.8,46.8A23.4,23.4,0,0,1,2.3,35.274H361.062a23.4,23.4,0,0,1,23.4,23.395v31.2h-15.6v-15.6a23.4,23.4,0,0,0-23.4-23.395H17.892A23.4,23.4,0,0,0-5.5,74.269v15.6H-21.1Zm31.2,15.6a7.8,7.8,0,0,1,7.8-7.8H345.463a7.8,7.8,0,0,1,7.8,7.8v93.6a7.8,7.8,0,0,1-7.8,7.8H231.709l-13.321-13.312a7.756,7.756,0,0,0-5.508-2.288h-62.4a7.791,7.791,0,0,0-5.517,2.288l-13.312,13.312H17.892a7.8,7.8,0,0,1-7.8-7.8Zm-46.8,31.2H-5.5v31.2H-36.7Zm421.168,77.988a23.4,23.4,0,0,1-23.4,23.4H216.11L202.8,193.548a7.791,7.791,0,0,0-5.517-2.288h-31.2a7.791,7.791,0,0,0-5.517,2.288l-13.312,13.312H2.3a23.4,23.4,0,0,1-23.4-23.4v-31.19H-5.5v15.6A23.4,23.4,0,0,0,17.892,191.26H134.884a7.813,7.813,0,0,0,5.517-2.288l13.312-13.312h55.94l13.312,13.312a7.813,7.813,0,0,0,5.517,2.288H345.463a23.4,23.4,0,0,0,23.4-23.395v-15.6h15.6Zm15.6-46.79h-31.2v-31.2h31.2Z" transform="translate(52.301 11.524)"/>
        </g>
        <g id="그룹_17" data-name="그룹 17" transform="translate(31.229 280.775)">
          <path id="패스_17" data-name="패스 17" class="cls-3" d="M27.653,0a31.2,31.2,0,1,0,31.2,31.2A31.2,31.2,0,0,0,27.653,0m0,46.8a15.6,15.6,0,1,1,15.6-15.6,15.6,15.6,0,0,1-15.6,15.6" transform="translate(3.546)"/>
        </g>
        <g id="그룹_18" data-name="그룹 18" transform="translate(0 249.574)">
          <path id="패스_18" data-name="패스 18" class="cls-3" d="M283.455,55.306a39.042,39.042,0,0,0-38.994-38.994H74.759a62.394,62.394,0,1,0,0,77.988h169.7a39.042,39.042,0,0,0,38.994-38.994M70.843,78.7a7.816,7.816,0,0,0-6.388,3.343A46.792,46.792,0,0,1-19.771,45.839a46.441,46.441,0,0,1,36.847-36.5,50.216,50.216,0,0,1,8.965-.836,46.51,46.51,0,0,1,38.4,20.051,7.809,7.809,0,0,0,6.4,3.343H244.461a23.395,23.395,0,1,1,0,46.79Z" transform="translate(36.348 7.092)"/>
        </g>
        <g id="그룹_19" data-name="그룹 19" transform="translate(374.398 374.366)">
          <path id="패스_19" data-name="패스 19" class="cls-3" d="M27.653,0a31.2,31.2,0,1,0,31.2,31.2A31.2,31.2,0,0,0,27.653,0m0,46.8a15.6,15.6,0,1,1,15.6-15.6,15.6,15.6,0,0,1-15.6,15.6" transform="translate(3.546)"/>
        </g>
        <g id="그룹_20" data-name="그룹 20" transform="translate(148.221 343.127)">
          <path id="패스_20" data-name="패스 20" class="cls-3" d="M238.637,1.013h0A62.259,62.259,0,0,0,178.1,23.308H8.393a39,39,0,0,0,0,78H178.1A62.394,62.394,0,1,0,238.637,1.013m24.275,91.036A46.812,46.812,0,0,1,188.39,89.04,7.783,7.783,0,0,0,182,85.706H8.393a23.4,23.4,0,0,1,0-46.8H182a7.777,7.777,0,0,0,6.4-3.335,46.788,46.788,0,1,1,74.513,56.477" transform="translate(30.601 0.13)"/>
        </g>
        <g id="그룹_21" data-name="그룹 21" transform="translate(109.226 304.186)">
          <path id="패스_21" data-name="패스 21" class="cls-3" d="M11.818,1.993A7.786,7.786,0,0,0,3.319.356,8.083,8.083,0,0,0,.741,1.993,8.974,8.974,0,0,0-.9,4.571a7.376,7.376,0,0,0,0,5.921A9.22,9.22,0,0,0,.741,13.07a8.974,8.974,0,0,0,2.578,1.636,7.3,7.3,0,0,0,5.921,0,8.974,8.974,0,0,0,2.578-1.636,7.722,7.722,0,0,0,1.636-8.5,8.974,8.974,0,0,0-1.636-2.578" transform="translate(1.516 0.256)"/>
        </g>
        <g id="그룹_22" data-name="그룹 22" transform="translate(140.422 304.186)">
          <path id="패스_22" data-name="패스 22" class="cls-3" d="M11.818,1.993A7.786,7.786,0,0,0,3.319.356,8.083,8.083,0,0,0,.741,1.993,8.974,8.974,0,0,0-.9,4.571a7.376,7.376,0,0,0,0,5.921A9.22,9.22,0,0,0,.741,13.07a9.1,9.1,0,0,0,2.578,1.636,7.3,7.3,0,0,0,5.921,0,8.974,8.974,0,0,0,2.578-1.636,7.707,7.707,0,0,0,1.636-8.5,8.974,8.974,0,0,0-1.636-2.578" transform="translate(1.516 0.256)"/>
        </g>
        <path id="패스_24" data-name="패스 24" class="cls-3" d="M833.757-70.68H942.944v15.6H833.757Z" transform="translate(-662.139 374.851)"/>
        <g id="그룹_24" data-name="그룹 24" transform="translate(343.201 397.747)">
          <path id="패스_25" data-name="패스 25" class="cls-3" d="M13.273,4.3a4.594,4.594,0,0,0-.7-1.329c-.308-.466-.625-.853-.933-1.249A5.574,5.574,0,0,0,10.387.79a4.379,4.379,0,0,0-1.329-.7A4.65,4.65,0,0,0,7.571-.38a6.8,6.8,0,0,0-3.035,0,5.236,5.236,0,0,0-1.4.466,6.448,6.448,0,0,0-1.417.7L.559,1.723A7.568,7.568,0,0,0-.373,2.972a4.484,4.484,0,0,0-.7,1.329,4.67,4.67,0,0,0-.466,1.478A9.37,9.37,0,0,0-1.7,7.266a7.82,7.82,0,0,0,.625,2.965A9.051,9.051,0,0,0,.559,12.8a8.974,8.974,0,0,0,2.578,1.636,7.3,7.3,0,0,0,5.921,0,7.019,7.019,0,0,0,4.214-4.206A7.991,7.991,0,0,0,13.9,7.266a8.457,8.457,0,0,0-.167-1.487A4.44,4.44,0,0,0,13.273,4.3" transform="translate(1.702 0.551)"/>
        </g>
        <g id="그룹_25" data-name="그룹 25" transform="translate(312.004 397.767)">
          <path id="패스_26" data-name="패스 26" class="cls-3" d="M13.273,4.284a4.594,4.594,0,0,0-.7-1.329c-.308-.466-.625-.853-.933-1.249a7.969,7.969,0,0,0-7.1-2.1,5.236,5.236,0,0,0-1.4.466,6.448,6.448,0,0,0-1.417.7L.559,1.706c-.308.4-.625.783-.933,1.249a4.484,4.484,0,0,0-.7,1.329,4.67,4.67,0,0,0-.466,1.478A9.37,9.37,0,0,0-1.7,7.249a7.82,7.82,0,0,0,.625,2.965A9.051,9.051,0,0,0,.559,12.783a8.974,8.974,0,0,0,2.578,1.636,7.707,7.707,0,0,0,8.5-1.636,9.051,9.051,0,0,0,1.636-2.569A7.82,7.82,0,0,0,13.9,7.249a8.457,8.457,0,0,0-.167-1.487,4.44,4.44,0,0,0-.458-1.478" transform="translate(1.702 0.549)"/>
        </g>
        <path id="패스_28" data-name="패스 28" class="cls-3" d="M835.53-60.042H944.717v15.6H835.53Z" transform="translate(-648.313 457.81)"/>
      </g>
    </g>
  </g>
</svg>
