<svg xmlns="http://www.w3.org/2000/svg" xmlns:xlink="http://www.w3.org/1999/xlink" width="500" height="500" viewBox="0 0 500 500">
  <defs>
    <style>
      .cls-1 {
        fill: none;
      }

      .cls-2 {
        clip-path: url(#clip-path);
      }

      .cls-3 {
        stroke: #000;
        stroke-width: 3px;
      }
    </style>
    <clipPath id="clip-path">
      <rect id="사각형_1" data-name="사각형 1" class="cls-1" width="500" height="500" transform="translate(117 365)"/>
    </clipPath>
  </defs>
  <g id="마스크_그룹_1" data-name="마스크 그룹 1" class="cls-2" transform="translate(-117 -365)">
    <g id="그룹_41" data-name="그룹 41" transform="translate(130 378)">
      <g id="그룹_33" data-name="그룹 33" transform="translate(0)">
        <g id="그룹_29" data-name="그룹 29" transform="translate(221.467 221.469)">
          <path id="패스_31" data-name="패스 31" class="cls-3" d="M0,98.319A110.734,110.734,0,1,0,110.729-12.41,110.728,110.728,0,0,0,0,98.319m102.824,94.91a94.1,94.1,0,0,1-53.312-22.146l53.312-53.705Zm15.82-75.449,53.3,53.3a94.079,94.079,0,0,1-53.3,22.146Zm0-113.585a94.14,94.14,0,0,1,53.3,22.146l-53.3,52.92Zm-15.82,75.458L49.511,26.341A94.185,94.185,0,0,1,102.824,3.8ZM38.358,37.494l53.312,52.92H16.212A94.141,94.141,0,0,1,38.358,37.1ZM16.212,106.225H91.671L38.358,159.537a94.141,94.141,0,0,1-22.146-53.312M183.1,159.537l-53.3-53.312h75.851A94.135,94.135,0,0,1,183.1,159.537m22.547-69.123H129.8L183.1,37.1a94.136,94.136,0,0,1,22.547,53.312" transform="translate(0 12.41)"/>
        </g>
        <g id="그룹_30" data-name="그룹 30">
          <path id="패스_32" data-name="패스 32" class="cls-3" d="M400.313,42.14a23.73,23.73,0,0,0,0-47.459H329.128V10.5H311.961a23.732,23.732,0,0,0-23.725,21.593l-8.619,94.919a39.565,39.565,0,0,0-29.587-13.687H99.755A39.542,39.542,0,0,0,60.21,152.87V255.694H49.057a23.733,23.733,0,0,0-23.1,18.434L6.425,358.517H-50.528v15.82H6.425a15.834,15.834,0,0,0,15.82-12.26l6.326-27.285H60.21v40.259a52.3,52.3,0,0,0-7.914-.714,47.445,47.445,0,1,0,23.734,6.406V366.423H97.855a7.924,7.924,0,0,1,7.12,4.354l14.945,29.98a23.734,23.734,0,0,0,21.28,13.125h28a142.371,142.371,0,1,0,121.089-228.9L304.056,33.521a7.906,7.906,0,0,1,7.905-7.2h17.167V42.14ZM83.935,421.8A31.64,31.64,0,1,1,52.3,390.157a32.077,32.077,0,0,1,7.914,1.106v11.466L46.684,416.175a7.908,7.908,0,0,0-.045,11.189c.009.018.027.027.045.045a7.9,7.9,0,0,0,11.18.045c.018-.018.036-.027.054-.045l13.446-13.527a15.849,15.849,0,0,0,4.667-11.153v-1.66A31.67,31.67,0,0,1,83.935,421.8m99.5-197.742H76.03V176.6H273.764v8.3a141.883,141.883,0,0,0-90.323,39.152m-83.685-94.91H250.03a23.733,23.733,0,0,1,23.734,23.725v7.914H76.03V152.87a23.725,23.725,0,0,1,23.725-23.725M76.03,239.874H169.2a135.473,135.473,0,0,0-10.6,15.82H76.03Zm-44.22,79.1,9.574-41.365a7.9,7.9,0,0,1,7.905-6.094H60.21v47.459ZM141.2,398.062a7.9,7.9,0,0,1-7.12-4.345l-14.945-29.98a23.718,23.718,0,0,0-21.28-13.125H76.03v-79.1h74.5a141.427,141.427,0,0,0,7.905,126.549Zm267.017-71.184A126.549,126.549,0,1,1,281.669,200.329,126.55,126.55,0,0,1,408.218,326.878M344.948,10.5h55.365a7.91,7.91,0,0,1,0,15.82H344.948Z" transform="translate(50.528 5.319)"/>
        </g>
      </g>
    </g>
  </g>
</svg>
