<svg xmlns="http://www.w3.org/2000/svg" xmlns:xlink="http://www.w3.org/1999/xlink" width="500" height="500" viewBox="0 0 500 500">
  <defs>
    <style>
      .cls-1 {
        fill: none;
      }

      .cls-2 {
        clip-path: url(#clip-path);
      }

      .cls-3 {
        stroke: #000;
        stroke-width: 6px;
      }
    </style>
    <clipPath id="clip-path">
      <rect id="사각형_2" data-name="사각형 2" class="cls-1" width="500" height="500" transform="translate(416 177)"/>
    </clipPath>
  </defs>
  <g id="마스크_그룹_2" data-name="마스크 그룹 2" class="cls-2" transform="translate(-416 -177)">
    <g id="그룹_40" data-name="그룹 40" transform="translate(436 188)">
      <g id="그룹_32" data-name="그룹 32">
        <path id="패스_11" data-name="패스 11" class="cls-3" d="M369.258,337.631v-19.55c0-13.916-11.6-25.244-25.846-25.244H238.467l-24.356-42.016v-12.7a33.91,33.91,0,0,0-7.637-21.376,4.81,4.81,0,0,0-.914-1.662l-77.21-91.024a32.268,32.268,0,0,0,.39-3.721,33.652,33.652,0,0,0-1.144-8.282l54.912-96.13c.594-.138,1.153-.355,1.73-.519l29.731,24.3a20.111,20.111,0,0,0,5.916,15.3,20.817,20.817,0,0,0,2.936,2.4l-1.5,30.307a2.058,2.058,0,0,0,.071.407,4.647,4.647,0,0,0,.142.987,5.549,5.549,0,0,0,.293.839,4.549,4.549,0,0,0,.479.8,5.221,5.221,0,0,0,.621.692,4.223,4.223,0,0,0,.736.545,4.085,4.085,0,0,0,.9.441c.142.052.239.156.39.2l36.179,9.814a5.078,5.078,0,0,0,1.33.182,4.94,4.94,0,0,0,2.634-.865,4.584,4.584,0,0,0,.6-.485,3.907,3.907,0,0,0,.727-.588,4.722,4.722,0,0,0,.736-1.5c.009-.052.071-.069.08-.121.009-.017,0-.035,0-.052a4.552,4.552,0,0,0,.106-1.341c-.009-.182.053-.363.027-.545a4.062,4.062,0,0,0-.355-1.047,4.225,4.225,0,0,0-.248-.71,3.406,3.406,0,0,0-.443-.511,4.82,4.82,0,0,0-.834-.909c-.018-.009-.018-.026-.035-.043L242.99,77.436l4.63-20.562a21.163,21.163,0,0,0,1.987-1.566,20.545,20.545,0,0,0,1.623-1.9L272.411,49.3l16.427,22.241a4,4,0,0,0,.727.606,3.848,3.848,0,0,0,.621.519,4.969,4.969,0,0,0,2.67.874,4.633,4.633,0,0,0,1.233-.156,4.937,4.937,0,0,0,1.5-.7c.044-.035.115-.017.169-.052.018-.009.027-.026.053-.043a5.271,5.271,0,0,0,.825-.883,6.841,6.841,0,0,0,.479-.528,3.6,3.6,0,0,0,.257-.692,4.588,4.588,0,0,0,.381-1.038,4.293,4.293,0,0,0-.027-.58,4.262,4.262,0,0,0-.062-1.3.138.138,0,0,0,0-.061l-9.349-35.491a3.526,3.526,0,0,0-.186-.363,4.4,4.4,0,0,0-.435-.891,6,6,0,0,0-.523-.718,6.708,6.708,0,0,0-1.481-1.1,3.865,3.865,0,0,0-.843-.294,4.188,4.188,0,0,0-1-.19c-.115-.009-.213-.069-.337-.069h-.133l-31.088.848a21.122,21.122,0,0,0-2.386-2.891,21.256,21.256,0,0,0-15.424-5.9L206.687-13.285c0-.138.035-.251.035-.389,0-16.78-14-30.437-31.2-30.437s-31.212,13.665-31.212,30.437a29.55,29.55,0,0,0,1.366,8.429L73.581,91.62a34.354,34.354,0,0,0-15.744,28.732c0,18.4,14.83,33.344,33.412,34.409l58.14,85.537v10.541L125.06,292.846H23.343c-14.253,0-25.855,11.328-25.855,25.244v19.55c-24.87,2.466-44.41,22.778-44.41,47.7,0,26.551,22.147,48.169,49.368,48.169,25.518,0,46.344-19.074,48.872-43.34H315.446c2.528,24.266,23.345,43.34,48.863,43.34,27.23,0,49.368-21.609,49.368-48.169,0-24.924-19.54-45.244-44.419-47.71m-53.821,42.855H51.318C48.959,357.829,30.625,339.941,7.4,337.631V322.919H359.342v14.712c-23.212,2.311-41.545,20.2-43.9,42.855M204.195,238.126v9.121H159.279v-9.121c0-13.163,10.076-23.885,22.458-23.885s22.458,10.722,22.458,23.885m-20.214-33.318c-.754-.061-1.472-.234-2.244-.234-13.739,0-25.447,8.957-30.13,21.531L102.363,153.67a35.264,35.264,0,0,0,22.706-18.286ZM232.6,78.388a3.088,3.088,0,0,0-.009.7,3.98,3.98,0,0,0-.018,1.125,4.97,4.97,0,0,0,.293.839,5.052,5.052,0,0,0,.355.891,6,6,0,0,0,.745.822,3.949,3.949,0,0,0,.488.528l4.027,2.951-7.1-1.921,1.153-23.383a22.875,22.875,0,0,0,2.333.216c.55,0,1.082-.112,1.623-.156Zm47.071-40.224,1.818,6.906-2.847-3.842-.071-.1a3.913,3.913,0,0,0-.5-.433,4.585,4.585,0,0,0-.9-.8,4.08,4.08,0,0,0-.727-.286,4.44,4.44,0,0,0-1.047-.381,5.108,5.108,0,0,0-1.029,0,4.914,4.914,0,0,0-.8,0l-.133.017h-.027l-17.739,3.444c.062-.6.2-1.186.2-1.8a19.99,19.99,0,0,0-.2-2.06Zm-33.7,2.622a10.719,10.719,0,0,1-3.335,7.624,11.57,11.57,0,0,1-15.664-.156,10.633,10.633,0,0,1,.151-15.283,11.268,11.268,0,0,1,15.681.156,10.639,10.639,0,0,1,3.166,7.659M224.054,23.244a20.242,20.242,0,0,0-3.876,2.813,20.533,20.533,0,0,0-2.98,3.669L193.959,10.747a30.9,30.9,0,0,0,9.952-11.96ZM175.5-34.444c11.735,0,21.287,9.32,21.287,20.761C196.788-2.216,187.236,7.1,175.5,7.1c-11.752,0-21.3-9.32-21.3-20.779,0-11.441,9.553-20.761,21.3-20.761M150.631,4.534a31.233,31.233,0,0,0,20.294,11.8l-48.331,84.594A35.714,35.714,0,0,0,93.262,85.744c-1.144,0-2.226.225-3.335.329ZM67.718,120.343c0-13.751,11.46-24.933,25.553-24.933s25.553,11.181,25.553,24.933-11.468,24.941-25.553,24.941-25.553-11.19-25.553-24.941m89.494,136.588h49.049l20.808,35.906H136.422ZM23.343,302.512H235.566a.8.8,0,0,0,.2,0H343.412a15.9,15.9,0,0,1,15.078,10.731H8.265a15.869,15.869,0,0,1,15.078-10.731M2.446,423.826c-21.757,0-39.452-17.274-39.452-38.5s17.695-38.5,39.452-38.5S41.9,364.095,41.9,385.323s-17.7,38.5-39.452,38.5m361.854,0c-21.748,0-39.452-17.274-39.452-38.5s17.695-38.5,39.452-38.5,39.452,17.274,39.452,38.5-17.695,38.5-39.452,38.5" transform="translate(46.922 44.111)"/>
      </g>
    </g>
  </g>
</svg>
